
<svg xmlns="http://www.w3.org/2000/svg" xmlns:xlink="http://www.w3.org/1999/xlink" width="120px" height="77px" viewBox="0 0 120 77" version="1.1"><title>Logo</title><desc>Created with Sketch.</desc><defs><polygon points="0.0123076923 0.18057178 0.0123076923 11.8633851 6.85414259 11.8633851 6.85414259 0.18057178 0.0123076923 0.18057178"/><polygon points="0.0913851578 48.1893369 30.2289556 48.1893369 30.2289556 0.190355438 0.0913851578 0.190355438 0.0913851578 48.1893369"/></defs><g stroke="none" stroke-width="1" fill="none" fill-rule="evenodd"><g transform="translate(-40.000000, -40.000000)"><g transform="translate(0.000000, 40.000000)"><g transform="translate(40.000000, 0.000000)"><g transform="translate(0.000000, 51.877984)"><mask fill="white"><use xlink:href="#path-1"/></mask><path d="M6.84697436 2.960313C6.72861538 4.32997347 5.15507692 5.31259151 3.33271795 5.15634483 1.50994872 4.99928117 0.129025641 3.76237931 0.247794872 2.39231034 0.366769231 1.02285411 1.93989744 0.0398275862 3.76287179 0.197095491 5.58502564 0.353750663 6.96615385 1.59044828 6.84697436 2.960313" fill="#588D32" mask="url(#mask-2)"/><path d="M6.52738462 8.67240584C6.80553846 10.019191 5.57846154 11.4072334 3.78625641 11.7738515 1.99446154 12.140878 0.316512821 11.3461645 0.0391794872 9.9997878 -0.238564103 8.65361538 0.988923077 7.26516446 2.78030769 6.89854642 4.57210256 6.53192838 6.24964103 7.32664191 6.52738462 8.67240584" fill="#588D32" mask="url(#mask-2)"/></g><path d="M8.57579487 65.7259337C9.36820513 66.8523395 8.79630769 68.6121061 7.29846154 69.6566101 5.80041026 70.702748 3.94420513 70.6377984 3.15158974 69.5113926 2.35938462 68.3858037 2.93169231 66.6252202 4.42953846 65.5807162 5.92697436 64.535191 7.78358974 64.6005491 8.57579487 65.7259337" fill="#588D32"/><g transform="translate(8.000000, 28.798408)"><mask fill="white"><use xlink:href="#path-3"/></mask><path d="M6.38441026 38.8800981C7.57333333 39.579634 7.78235897 41.4166048 6.85210256 42.9849947 5.9214359 44.5525676 4.20430769 45.2574138 3.016 44.5582865 1.82707692 43.8593634 1.61784615 42.0213714 2.54789744 40.4533899 3.4785641 38.8854085 5.19569231 38.1809708 6.38441026 38.8800981" fill="#588D32" mask="url(#mask-4)"/><path d="M5.11753846 0.336594164C5.11753846 0.336594164-12.7425641 42.086321 18.8717949 40.6729523L27.6164103 48.1891326C27.6164103 48.1891326 31.2769231 48.4875332 29.9321026 46.1795756 29.9321026 46.1795756 3.32061538 30.1037321 5.86338462 17.1552732 5.86338462 17.1552732 6.60964103 29.4340159 22.1573333 37.1001114 22.1573333 37.1001114 28.768 27.9869469 22.9304615 21.4172334 22.9304615 21.4172334 5.31302564 4.95332626 5.16533333 0.190355438L5.11753846 0.336594164" fill="#AAC38E" mask="url(#mask-4)"/></g><path d="M43.5887179 43.6232573C43.5887179 44.1912599 43.7042051 44.7331194 43.9353846 45.2467931 44.1659487 45.7610796 44.4717949 46.2151141 44.8527179 46.6068541 45.2330256 46.9994111 45.6886154 47.3041432 46.2190769 47.5206419 46.7487179 47.7377533 47.2990769 47.8449814 47.8699487 47.8449814 48.4678974 47.8449814 49.0250256 47.7377533 49.5419487 47.5206419 50.057641 47.3041432 50.5132308 46.9994111 50.9076923 46.6068541 51.3011282 46.2151141 51.6071795 45.7610796 51.8252308 45.2467931 52.0426667 44.7331194 52.1513846 44.1912599 52.1513846 43.6232573L52.1513846 37.7769761C52.1513846 37.2081565 52.0354872 36.6675225 51.8043077 36.1526233 51.5735385 35.6391538 51.2672821 35.1855279 50.8873846 34.7925623 50.5062564 34.4008223 50.0512821 34.0969072 49.5214359 33.879183 48.9913846 33.6632971 48.4410256 33.554435 47.8699487 33.554435 47.2722051 33.554435 46.7142564 33.6632971 46.1985641 33.879183 45.6818462 34.0969072 45.2258462 34.4008223 44.8322051 34.7925623 44.4381538 35.1855279 44.1325128 35.6391538 43.9150769 36.1526233 43.6972308 36.6675225 43.5887179 37.2081565 43.5887179 37.7769761L43.5887179 43.6232573 43.5887179 43.6232573ZM40.4898462 37.7769761C40.4898462 36.7759761 40.6795897 35.8282838 41.0607179 34.9355332 41.4414359 34.0419655 41.9710769 33.2644085 42.6510769 32.6010239 43.329641 31.9380477 44.112 31.4166127 44.9954872 31.0373316 45.878359 30.6586631 46.8369231 30.4691247 47.8699487 30.4691247 48.8752821 30.4691247 49.8270769 30.6586631 50.7243077 31.0373316 51.6215385 31.4166127 52.4022564 31.9380477 53.0687179 32.6010239 53.7345641 33.2644085 54.2646154 34.0419655 54.6588718 34.9355332 55.0523077 35.8282838 55.2498462 36.7759761 55.2498462 37.7769761L55.2498462 43.6232573C55.2498462 44.6250743 55.0596923 45.5715411 54.6793846 46.4642918 54.2984615 47.3574509 53.7684103 48.1358249 53.0890256 48.7988011 52.4094359 49.4625942 51.6215385 49.9836207 50.7243077 50.3620849 49.8270769 50.7415703 48.8752821 50.9302918 47.8699487 50.9302918 47.0812308 50.9302918 46.3204103 50.8089708 45.5866667 50.5653077 44.8527179 50.3214403 44.1862564 49.9836207 43.5887179 49.5504191L43.5887179 56.3705358C43.5887179 56.8033289 43.432 57.1685172 43.12 57.4665093 42.8069744 57.7640928 42.4469744 57.913191 42.0391795 57.913191 41.6045128 57.913191 41.2371282 57.7640928 40.9386667 57.4665093 40.6389744 57.1685172 40.4898462 56.8033289 40.4898462 56.3705358L40.4898462 37.7769761 40.4898462 37.7769761Z" fill="#588D32"/><path d="M59.9798974 39.1570531L68.542359 39.1570531 68.542359 37.7769761C68.542359 37.2081565 68.4262564 36.6675225 68.1958974 36.1526233 67.9645128 35.6391538 67.6584615 35.1855279 67.2781538 34.7925623 66.8974359 34.4008223 66.4422564 34.0969072 65.9122051 33.879183 65.3821538 33.6632971 64.8317949 33.554435 64.2611282 33.554435 63.6625641 33.554435 63.1050256 33.6632971 62.5891282 33.879183 62.0724103 34.0969072 61.6170256 34.4008223 61.2233846 34.7925623 60.8289231 35.1855279 60.5230769 35.6391538 60.3058462 36.1526233 60.088 36.6675225 59.9798974 37.2081565 59.9798974 37.7769761L59.9798974 39.1570531 59.9798974 39.1570531ZM56.8808205 37.7769761C56.8808205 36.7759761 57.070359 35.8282838 57.4518974 34.9355332 57.8324103 34.0419655 58.3620513 33.2644085 59.0420513 32.6010239 59.7214359 31.9380477 60.5029744 31.4166127 61.3860513 31.0373316 62.2695385 30.6586631 63.2274872 30.4691247 64.2611282 30.4691247 65.2662564 30.4691247 66.2178462 30.6586631 67.1152821 31.0373316 68.0118974 31.4166127 68.7930256 31.9380477 69.4594872 32.6010239 70.1253333 33.2644085 70.6553846 34.0419655 71.0498462 34.9355332 71.4434872 35.8282838 71.6410256 36.7759761 71.6410256 37.7769761L71.6410256 40.7001167C71.6410256 41.1333183 71.4914872 41.4987109 71.1922051 41.7962944 70.8929231 42.0942865 70.5259487 42.2423634 70.0916923 42.2423634L59.9798974 42.2423634 59.9798974 43.6232573C59.9798974 44.1912599 60.0951795 44.7331194 60.3265641 45.2467931 60.5567179 45.7610796 60.8627692 46.2151141 61.2434872 46.6068541 61.6237949 46.9994111 62.0793846 47.3041432 62.6098462 47.5206419 63.1396923 47.7377533 63.6898462 47.8449814 64.2611282 47.8449814 65.1308718 47.8449814 65.9122051 47.6215385 66.6053333 47.1748568 67.2986667 46.7283793 67.8219487 46.1264721 68.1753846 45.3685225L68.2157949 45.2467931C68.3243077 44.9492095 68.5074872 44.712695 68.766359 44.5364324 69.0244103 44.3609867 69.3169231 44.2723448 69.6428718 44.2723448 70.0775385 44.2723448 70.4443077 44.4287958 70.7435897 44.7394509 71.0426667 45.0503103 71.1922051 45.4091671 71.1922051 45.8154085 71.1922051 46.0047427 71.1517949 46.1946897 71.0701538 46.3834111L70.9883077 46.5457851C70.4178462 47.8449814 69.5339487 48.9005146 68.3384615 49.7127931 67.1419487 50.5244589 65.7827692 50.9302918 64.2611282 50.9302918 63.2547692 50.9302918 62.3037949 50.7415703 61.4069744 50.3620849 60.5099487 49.9836207 59.7275897 49.4625942 59.0621538 48.7988011 58.3958974 48.1358249 57.8658462 47.3574509 57.4717949 46.4642918 57.0775385 45.5715411 56.8808205 44.6250743 56.8808205 43.6232573L56.8808205 37.7769761 56.8808205 37.7769761Z" fill="#588D32"/><path d="M74.0057436 25.4755623C74.0057436 25.0427692 74.1540513 24.6777851 74.4537436 24.3793846 74.7526154 24.0822095 75.1197949 23.9333156 75.5548718 23.9333156 75.9624615 23.9333156 76.3222564 24.0822095 76.6352821 24.3793846 76.9472821 24.6777851 77.104 25.0427692 77.104 25.4755623L77.104 30.6314987 85.0141538 30.6314987C85.4490256 30.6314987 85.8155897 30.7803926 86.1148718 31.0779761 86.4139487 31.3767851 86.5636923 31.7417692 86.5636923 32.1745623 86.5636923 32.580191 86.4139487 32.939252 86.1148718 33.2505199 85.8155897 33.5615836 85.4490256 33.716809 85.0141538 33.716809L77.104 33.716809 77.104 43.6232573C77.104 44.1912599 77.2194872 44.7331194 77.4504615 45.2467931 77.6814359 45.7610796 77.9868718 46.2151141 78.368 46.6068541 78.7487179 46.9994111 79.2041026 47.3041432 79.7337436 47.5206419 80.2642051 47.7377533 80.8147692 47.8449814 81.3852308 47.8449814 82.2547692 47.8449814 83.0428718 47.6152069 83.7505641 47.1552493 84.4566154 46.6944748 84.9866667 46.0590716 85.3405128 45.2467931 85.4763077 44.9492095 85.6664615 44.712695 85.9111795 44.5364324 86.1558974 44.3609867 86.441641 44.2723448 86.7675897 44.2723448 87.2020513 44.2723448 87.5690256 44.4287958 87.8685128 44.7394509 88.1671795 45.0503103 88.3167179 45.4091671 88.3167179 45.8154085 88.3167179 46.0047427 88.2761026 46.1946897 88.1948718 46.3834111 87.6500513 47.5745623 86.9981538 48.4812016 86.2377436 49.1035332 85.4763077 49.7266817 84.7351795 50.1735676 84.0151795 50.4431698 83.2945641 50.7139973 82.6832821 50.8624828 82.1803077 50.889443 81.6769231 50.9170159 81.4121026 50.9302918 81.3852308 50.9302918 80.3794872 50.9302918 79.4283077 50.7415703 78.5312821 50.3620849 77.6340513 49.9836207 76.8527179 49.4625942 76.1868718 48.7988011 75.5202051 48.1358249 74.9905641 47.3574509 74.5969231 46.4642918 74.2022564 45.5715411 74.0057436 44.6250743 74.0057436 43.6232573L74.0057436 25.4755623" fill="#588D32"/><path d="M2.24861538 1.62557825C2.24861538 1.19298939 2.39794872 0.827596817 2.69702564 0.529196286 2.99610256 0.23202122 3.36287179 0.083127321 3.79794872 0.083127321 4.20574359 0.083127321 4.56594872 0.23202122 4.87876923 0.529196286 5.1905641 0.827596817 5.34748718 1.19298939 5.34748718 1.62557825L5.34748718 8.4458992C5.94523077 8.01331034 6.61148718 7.67467374 7.3454359 7.43101061 8.07938462 7.18734748 8.84 7.06582228 9.62871795 7.06582228 10.6338462 7.06582228 11.5858462 7.25556499 12.4826667 7.63402918 13.3801026 8.01331034 14.1610256 8.53433687 14.8274872 9.19751724 15.4933333 9.86049337 16.0231795 10.6386631 16.4178462 11.5312095 16.8112821 12.4247772 17.0086154 13.3722653 17.0086154 14.373061L17.0086154 25.8219602C17.0086154 26.2551618 16.8518974 26.6205544 16.5398974 26.9181379 16.2268718 27.2169469 15.8670769 27.3648196 15.4594872 27.3648196 15.0244103 27.3648196 14.6574359 27.2169469 14.358359 26.9181379 14.0592821 26.6205544 13.9101538 26.2551618 13.9101538 25.8219602L13.9101538 14.373061C13.9101538 13.8048541 13.7940513 13.2640159 13.5634872 12.7491167 13.3321026 12.2358515 13.0264615 11.7820212 12.6461538 11.3894642 12.2650256 10.9975199 11.8100513 10.6927878 11.28 10.4756764 10.7499487 10.259382 10.1993846 10.1511326 9.62871795 10.1511326 9.0305641 10.1511326 8.48 10.259382 7.9774359 10.4756764 7.47425641 10.6927878 7.02564103 10.9834271 6.632 11.3486154 6.23733333 11.714008 5.93189744 12.1402653 5.71466667 12.6275915 5.49661538 13.115122 5.37415385 13.6424801 5.34748718 14.210687L5.34748718 25.8219602C5.34748718 26.2551618 5.1905641 26.6205544 4.87876923 26.9181379 4.56594872 27.2169469 4.20574359 27.3648196 3.79794872 27.3648196 3.36287179 27.3648196 2.99610256 27.2169469 2.69702564 26.9181379 2.39794872 26.6205544 2.24861538 26.2551618 2.24861538 25.8219602L2.24861538 1.62557825" fill="#588D32"/><path d="M21.8609231 15.7537507L30.4233846 15.7537507 30.4233846 14.373061C30.4233846 13.8048541 30.3070769 13.2640159 30.0769231 12.7491167 29.8453333 12.2358515 29.5394872 11.7820212 29.1593846 11.3894642 28.7782564 10.9975199 28.3234872 10.6927878 27.7930256 10.4756764 27.2631795 10.259382 26.7130256 10.1511326 26.1421538 10.1511326 25.5435897 10.1511326 24.9862564 10.259382 24.4701538 10.4756764 23.953641 10.6927878 23.4978462 10.9975199 23.1044103 11.3894642 22.7099487 11.7820212 22.4041026 12.2358515 22.1870769 12.7491167 21.9690256 13.2640159 21.8609231 13.8048541 21.8609231 14.373061L21.8609231 15.7537507 21.8609231 15.7537507ZM18.7618462 14.373061C18.7618462 13.3722653 18.9517949 12.4247772 19.3327179 11.5312095 19.7128205 10.6386631 20.2432821 9.86049337 20.9230769 9.19751724 21.6018462 8.53433687 22.3837949 8.01331034 23.2672821 7.63402918 24.1505641 7.25556499 25.1085128 7.06582228 26.1421538 7.06582228 27.1472821 7.06582228 28.0992821 7.25556499 28.9958974 7.63402918 29.8929231 8.01331034 30.6742564 8.53433687 31.3409231 9.19751724 32.006359 9.86049337 32.5368205 10.6386631 32.9310769 11.5312095 33.3247179 12.4247772 33.5220513 13.3722653 33.5220513 14.373061L33.5220513 17.2962016C33.5220513 17.7294032 33.3721026 18.0954085 33.073641 18.3925836 32.7739487 18.6909841 32.4069744 18.8392653 31.9723077 18.8392653L21.8609231 18.8392653 21.8609231 20.2191379C21.8609231 20.7881618 21.976 21.3296127 22.2069744 21.8438992 22.4377436 22.3579814 22.7437949 22.8116074 23.1249231 23.2033475 23.5050256 23.5959045 23.9606154 23.9010451 24.4902564 24.1165225 25.0207179 24.3334297 25.5710769 24.441679 26.1421538 24.441679 27.0114872 24.441679 27.7930256 24.2182361 28.486359 23.7717586 29.1796923 23.3250769 29.7027692 22.7231698 30.0562051 21.9652202L30.0972308 21.8438992C30.2053333 21.5459072 30.3889231 21.3093926 30.6477949 21.13313 30.905641 20.9574801 31.1977436 20.8690424 31.5236923 20.8690424 31.9585641 20.8690424 32.3253333 21.0248806 32.6248205 21.3361485 32.9238974 21.6472122 33.073641 22.006069 33.073641 22.4119019 33.073641 22.6016446 33.0326154 22.7913873 32.9509744 22.9801088L32.8697436 23.1422785C32.2986667 24.441679 31.4151795 25.4976207 30.2194872 26.3092865 29.0227692 27.1211565 27.664 27.5271936 26.1421538 27.5271936 25.1357949 27.5271936 24.1850256 27.3380637 23.2877949 26.9587825 22.3905641 26.5797056 21.6088205 26.0592918 20.9429744 25.3954987 20.2767179 24.7331353 19.7466667 23.9541485 19.3532308 23.0618064 18.9587692 22.1682387 18.7618462 21.2207507 18.7618462 20.2191379L18.7618462 14.373061 18.7618462 14.373061Z" fill="#588D32"/><path d="M38.8219487 20.2191379C38.8219487 20.7881618 38.9374359 21.3296127 39.1686154 21.8438992 39.3989744 22.3579814 39.7046154 22.8116074 40.0859487 23.2033475 40.4666667 23.5959045 40.921641 23.9010451 41.4516923 24.1165225 41.9819487 24.3334297 42.5327179 24.441679 43.1031795 24.441679 43.6740513 24.441679 44.2170256 24.3399655 44.734359 24.1369469 45.2500513 23.9337241 45.6986667 23.6502334 46.0791795 23.2844324 46.4598974 22.9190398 46.7655385 22.4927825 46.9971282 22.006069 47.2276923 21.5185385 47.3569231 20.9909761 47.3842051 20.4221565L47.3842051 14.373061C47.3842051 13.8048541 47.2683077 13.2640159 47.0379487 12.7491167 46.8065641 12.2358515 46.5003077 11.7820212 46.12 11.3894642 45.7392821 10.9975199 45.2843077 10.6927878 44.7546667 10.4756764 44.2244103 10.259382 43.6740513 10.1511326 43.1031795 10.1511326 42.5050256 10.1511326 41.9472821 10.259382 41.4315897 10.4756764 40.9148718 10.6927878 40.4590769 10.9975199 40.0652308 11.3894642 39.6709744 11.7820212 39.3655385 12.2358515 39.1481026 12.7491167 38.9302564 13.2640159 38.8219487 13.8048541 38.8219487 14.373061L38.8219487 20.2191379 38.8219487 20.2191379ZM35.7228718 14.373061C35.7228718 13.3722653 35.9126154 12.4247772 36.2939487 11.5312095 36.6746667 10.6386631 37.2043077 9.86049337 37.8841026 9.19751724 38.5636923 8.53433687 39.3450256 8.01331034 40.2289231 7.63402918 41.1115897 7.25556499 42.0699487 7.06582228 43.1031795 7.06582228 44.1085128 7.06582228 45.0603077 7.25556499 45.9573333 7.63402918 46.8545641 8.01331034 47.6352821 8.53433687 48.3019487 9.19751724 48.9677949 9.86049337 49.4974359 10.6386631 49.8918974 11.5312095 50.2859487 12.4247772 50.4830769 13.3722653 50.4830769 14.373061L50.4830769 25.8219602C50.4830769 26.2551618 50.326359 26.6205544 50.0139487 26.9181379 49.7013333 27.2169469 49.3417436 27.3648196 48.9339487 27.3648196 48.5532308 27.3648196 48.2203077 27.249626 47.9347692 27.0202599 47.6494359 26.7904854 47.4793846 26.4988249 47.4252308 26.1460955 46.1745641 27.0672361 44.734359 27.5271936 43.1031795 27.5271936 42.0974359 27.5271936 41.145641 27.3380637 40.2486154 26.9587825 39.352 26.5797056 38.5704615 26.0592918 37.9042051 25.3954987 37.2381538 24.7331353 36.7078974 23.9541485 36.3140513 23.0618064 35.9197949 22.1682387 35.7228718 21.2207507 35.7228718 20.2191379L35.7228718 14.373061 35.7228718 14.373061Z" fill="#588D32"/><path d="M52.7261538 2.11290451C52.7261538 1.68031565 52.8752821 1.31431034 53.1747692 1.01652255 53.4738462 0.718734748 53.8406154 0.569840849 54.2758974 0.569840849 54.6834872 0.569840849 55.0430769 0.718734748 55.3561026 1.01652255 55.6681026 1.31431034 55.8252308 1.68031565 55.8252308 2.11290451L55.8252308 25.8219602C55.8252308 26.2551618 55.6752821 26.6205544 55.3764103 26.9181379 55.0771282 27.2169469 54.7099487 27.3648196 54.2758974 27.3648196 53.8676923 27.3648196 53.5076923 27.2169469 53.1952821 26.9181379 52.8826667 26.6205544 52.7261538 26.2551618 52.7261538 25.8219602L52.7261538 2.11290451" fill="#588D32"/><path d="M58.1081026 2.07225995C58.1081026 1.63967109 58.2566154 1.27448276 58.5563077 0.975877984 58.8551795 0.678702918 59.2221538 0.529196286 59.6572308 0.529196286 60.0648205 0.529196286 60.4246154 0.678702918 60.7378462 0.975877984 61.049641 1.27448276 61.2065641 1.63967109 61.2065641 2.07225995L61.2065641 7.22799204 69.1167179 7.22799204C69.5515897 7.22799204 69.9179487 7.37688594 70.2174359 7.67467374 70.5165128 7.97246154 70.6662564 8.33846684 70.6662564 8.7710557 70.6662564 9.17709284 70.5165128 9.5359496 70.2174359 9.84640053 69.9179487 10.1582812 69.5515897 10.3135066 69.1167179 10.3135066L61.2065641 10.3135066 61.2065641 20.2191379C61.2065641 20.7881618 61.3220513 21.3296127 61.5532308 21.8438992 61.784 22.3579814 62.0892308 22.8116074 62.4705641 23.2033475 62.8512821 23.5959045 63.3064615 23.9010451 63.8365128 24.1165225 64.3667692 24.3334297 64.9171282 24.441679 65.4877949 24.441679 66.3577436 24.441679 67.1454359 24.212313 67.8529231 23.7515385 68.5591795 23.2911724 69.0892308 22.6557692 69.4430769 21.8438992 69.5788718 21.5459072 69.7692308 21.3093926 70.0135385 21.13313 70.2582564 20.9574801 70.544 20.8690424 70.8699487 20.8690424 71.3044103 20.8690424 71.6715897 21.0248806 71.9710769 21.3361485 72.2697436 21.6472122 72.4192821 22.006069 72.4192821 22.4119019 72.4192821 22.6016446 72.3786667 22.7913873 72.2972308 22.9801088 71.7526154 24.1712599 71.1005128 25.0778992 70.3401026 25.7002308 69.5788718 26.3233793 68.8375385 26.770061 68.1175385 27.0396631 67.3969231 27.310695 66.7858462 27.4589761 66.2826667 27.4865491 65.7794872 27.513305 65.5146667 27.5271936 65.4877949 27.5271936 64.4818462 27.5271936 63.5310769 27.3380637 62.6338462 26.9587825 61.7366154 26.5797056 60.9550769 26.0592918 60.2892308 25.3954987 59.6225641 24.7331353 59.0929231 23.9541485 58.6992821 23.0618064 58.3046154 22.1682387 58.1081026 21.2207507 58.1081026 20.2191379L58.1081026 2.07225995" fill="#588D32"/><path d="M74.0090256 1.62557825C74.0090256 1.19298939 74.158359 0.827596817 74.4578462 0.529196286 74.7561026 0.23202122 75.1232821 0.083127321 75.5585641 0.083127321 75.9657436 0.083127321 76.326359 0.23202122 76.6389744 0.529196286 76.9513846 0.827596817 77.1078974 1.19298939 77.1078974 1.62557825L77.1078974 8.4458992C77.7054359 8.01331034 78.3716923 7.67467374 79.105641 7.43101061 79.8397949 7.18734748 80.6002051 7.06582228 81.3893333 7.06582228 82.3942564 7.06582228 83.3460513 7.25556499 84.2432821 7.63402918 85.1401026 8.01331034 85.9214359 8.53433687 86.5876923 9.19751724 87.2535385 9.86049337 87.784 10.6386631 88.1778462 11.5312095 88.5714872 12.4247772 88.7690256 13.3722653 88.7690256 14.373061L88.7690256 25.8219602C88.7690256 26.2551618 88.6123077 26.6205544 88.3001026 26.9181379 87.9874872 27.2169469 87.6272821 27.3648196 87.2196923 27.3648196 86.7848205 27.3648196 86.417641 27.2169469 86.1191795 26.9181379 85.8194872 26.6205544 85.6705641 26.2551618 85.6705641 25.8219602L85.6705641 14.373061C85.6705641 13.8048541 85.5546667 13.2640159 85.3234872 12.7491167 85.0925128 12.2358515 84.7866667 11.7820212 84.4065641 11.3894642 84.025641 10.9975199 83.5706667 10.6927878 83.0402051 10.4756764 82.5105641 10.259382 81.9597949 10.1511326 81.3893333 10.1511326 80.7907692 10.1511326 80.2404103 10.259382 79.7378462 10.4756764 79.2346667 10.6927878 78.7860513 10.9834271 78.3926154 11.3486154 77.9977436 11.714008 77.6921026 12.1402653 77.4746667 12.6275915 77.2566154 13.115122 77.1347692 13.6424801 77.1078974 14.210687L77.1078974 25.8219602C77.1078974 26.2551618 76.9513846 26.6205544 76.6389744 26.9181379 76.326359 27.2169469 75.9657436 27.3648196 75.5585641 27.3648196 75.1232821 27.3648196 74.7561026 27.2169469 74.4578462 26.9181379 74.158359 26.6205544 74.0090256 26.2551618 74.0090256 25.8219602L74.0090256 1.62557825" fill="#588D32"/><path d="M90.2777436 8.7710557C90.2777436 8.33846684 90.4270769 7.97246154 90.7265641 7.67467374 91.0248205 7.37688594 91.392 7.22799204 91.8272821 7.22799204 92.2344615 7.22799204 92.5948718 7.37688594 92.9076923 7.67467374 93.2198974 7.97246154 93.376 8.33846684 93.376 8.7710557L93.376 20.2191379C93.376 20.7881618 93.4849231 21.3296127 93.7027692 21.8438992 93.92 22.3579814 94.2258462 22.8116074 94.6205128 23.2033475 95.0141538 23.5959045 95.4695385 23.9010451 95.9860513 24.1165225 96.5021538 24.3334297 97.0596923 24.441679 97.657641 24.441679 98.2285128 24.441679 98.7788718 24.3334297 99.3091282 24.1165225 99.8391795 23.9010451 100.293744 23.5959045 100.675282 23.2033475 101.05559 22.8116074 101.361436 22.3579814 101.592 21.8438992 101.822974 21.3296127 101.938872 20.7881618 101.938872 20.2191379L101.938872 8.7710557C101.938872 8.33846684 102.088 7.97246154 102.387282 7.67467374 102.686359 7.37688594 103.053128 7.22799204 103.488 7.22799204 103.896205 7.22799204 104.256 7.37688594 104.569231 7.67467374 104.880821 7.97246154 105.037538 8.33846684 105.037538 8.7710557L105.037538 20.2191379C105.037538 21.0859496 104.88841 21.9180398 104.589333 22.7160212 104.289846 23.5146154 103.882051 24.2253846 103.366154 24.8477162 102.849436 25.4708647 102.230769 26.0045544 101.510974 26.4510318 100.790359 26.8977135 100.022564 27.2024456 99.2067692 27.3648196L99.2067692 32.9676419C99.2067692 33.4000265 99.057641 33.7654191 98.7585641 34.0630027 98.4590769 34.3609947 98.0923077 34.5098886 97.657641 34.5098886 97.2500513 34.5098886 96.8892308 34.3609947 96.5772308 34.0630027 96.2644103 33.7654191 96.1085128 33.4000265 96.1085128 32.9676419L96.1085128 27.3648196C95.2654359 27.2024456 94.4910769 26.8977135 93.7842051 26.4510318 93.0767179 26.0045544 92.4654359 25.4708647 91.9495385 24.8477162 91.4328205 24.2253846 91.0248205 23.5146154 90.7265641 22.7160212 90.4270769 21.9180398 90.2777436 21.0859496 90.2777436 20.2191379L90.2777436 8.7710557" fill="#588D32"/><path d="M58.4032821 59.4750451C58.4032821 58.6594987 58.5591795 57.8984854 58.872 57.1903714 59.1837949 56.4822573 59.609641 55.8715676 60.1481026 55.3566684 60.6861538 54.841565 61.3165128 54.4351194 62.0381538 54.1342679 62.7602051 53.8338249 63.5298462 53.6843183 64.3487179 53.6843183 64.4988718 53.6843183 64.7850256 53.7110743 65.2051282 53.7645862 65.6246154 53.8183024 66.1035897 53.9631114 66.6424615 54.1990133 67.1807179 54.4351194 67.7193846 54.7941804 68.2582564 55.2764005 68.7958974 55.7590292 69.2594872 56.4295623 69.6471795 57.2873873 69.712 57.458748 69.7444103 57.6088674 69.7444103 57.7377454 69.7444103 58.0806711 69.6260513 58.3702891 69.3889231 58.606191 69.1517949 58.8422971 68.8609231 58.9603501 68.5163077 58.9603501 67.9778462 58.9603501 67.6008205 58.7025942 67.385641 58.187695 67.105641 57.544122 66.6855385 57.0408647 66.1255385 56.6754721 65.5651282 56.3115093 64.9407179 56.1293236 64.2518974 56.1293236 63.7991795 56.1293236 63.3632821 56.2146976 62.9427692 56.3862626 62.5230769 56.5580318 62.1620513 56.7998568 61.8609231 57.1101034 61.5587692 57.4213714 61.3165128 57.7812493 61.1335385 58.187695 60.9507692 58.5957745 60.8592821 59.0248912 60.8592821 59.4750451L60.8592821 66.1025597 64.3487179 66.1025597C64.6929231 66.1025597 64.9833846 66.2257188 65.2213333 66.4718329 65.4574359 66.7187639 65.5764103 67.0028674 65.5764103 67.3243475 65.5764103 67.6678859 65.4574359 67.9570955 65.2213333 68.1932016 64.9833846 68.4293077 64.6929231 68.5471565 64.3487179 68.5471565L60.8592821 68.5471565 60.8592821 74.0803316C60.8592821 74.42387 60.7349744 74.7138966 60.4873846 74.9491857 60.2397949 75.1857003 59.9546667 75.3031406 59.6311795 75.3031406 59.2861538 75.3031406 58.9954872 75.1857003 58.7589744 74.9491857 58.5214359 74.7138966 58.4032821 74.42387 58.4032821 74.0803316L58.4032821 59.4750451" fill="#666666"/><path d="M70.5522051 69.6408833C70.5522051 70.0908329 70.6434872 70.5209708 70.8264615 70.9282334 71.0090256 71.335496 71.2514872 71.695374 71.5534359 72.0056207 71.8547692 72.3168886 72.2157949 72.5581008 72.6356923 72.7296658 73.0562051 72.9012308 73.4923077 72.9866048 73.9446154 72.9866048 74.4184615 72.9866048 74.8598974 72.9012308 75.2693333 72.7296658 75.6781538 72.5581008 76.0393846 72.3168886 76.3517949 72.0056207 76.6635897 71.695374 76.9060513 71.335496 77.0785641 70.9282334 77.2506667 70.5209708 77.3368205 70.0908329 77.3368205 69.6408833L77.3368205 65.0082202C77.3368205 64.5578621 77.2451282 64.1295623 77.062359 63.7214828 76.8791795 63.3140159 76.6371282 62.9543422 76.3355897 62.6438912 76.0338462 62.3328276 75.6732308 62.0918196 75.2531282 61.9198462 74.8330256 61.7482812 74.3969231 61.6622944 73.9446154 61.6622944 73.4701538 61.6622944 73.0287179 61.7482812 72.6196923 61.9198462 72.2102564 62.0918196 71.849641 62.3328276 71.5372308 62.6438912 71.2250256 62.9543422 70.9827692 63.3140159 70.8104615 63.7214828 70.6377436 64.1295623 70.5522051 64.5578621 70.5522051 65.0082202L70.5522051 69.6408833 70.5522051 69.6408833ZM68.0964103 65.0082202C68.0964103 64.2153448 68.2471795 63.4637268 68.5487179 62.7564297 68.8500513 62.0483156 69.2701538 61.4317029 69.8090256 60.906183 70.3468718 60.3812759 70.9661538 59.9680902 71.6666667 59.6676472 72.3661538 59.3676127 73.1257436 59.2172891 73.9446154 59.2172891 74.7415385 59.2172891 75.4955897 59.3676127 76.2059487 59.6676472 76.9171282 59.9680902 77.5362051 60.3812759 78.0637949 60.906183 78.5915897 61.4317029 79.0116923 62.0483156 79.3238974 62.7564297 79.6363077 63.4637268 79.7926154 64.2153448 79.7926154 65.0082202L79.7926154 69.6408833C79.7926154 70.4343714 79.641641 71.1851724 79.3405128 71.8930822 79.0381538 72.6003793 78.6184615 73.2171963 78.0802051 73.7425119 77.5417436 74.2682361 76.9171282 74.680809 76.2059487 74.9814562 75.4955897 75.2818992 74.7415385 75.4316101 73.9446154 75.4316101 73.1474872 75.4316101 72.3934359 75.2818992 71.6830769 74.9814562 70.9718974 74.680809 70.3524103 74.2682361 69.8248205 73.7425119 69.2966154 73.2171963 68.8769231 72.6003793 68.5647179 71.8930822 68.2523077 71.1851724 68.0964103 70.4343714 68.0964103 69.6408833L68.0964103 65.0082202 68.0964103 65.0082202Z" fill="#666666"/><path d="M84.0898462 69.6408833C84.0898462 70.0908329 84.1811282 70.5209708 84.3645128 70.9282334 84.5470769 71.335496 84.7895385 71.695374 85.0914872 72.0056207 85.3930256 72.3168886 85.753641 72.5581008 86.1737436 72.7296658 86.5938462 72.9012308 87.0301538 72.9866048 87.4822564 72.9866048 87.9561026 72.9866048 88.3975385 72.9012308 88.8073846 72.7296658 89.2157949 72.5581008 89.5770256 72.3168886 89.889641 72.0056207 90.201641 71.695374 90.4438974 71.335496 90.6166154 70.9282334 90.7887179 70.5209708 90.8748718 70.0908329 90.8748718 69.6408833L90.8748718 65.0082202C90.8748718 64.5578621 90.7831795 64.1295623 90.6 63.7214828 90.4172308 63.3140159 90.1747692 62.9543422 89.8732308 62.6438912 89.5714872 62.3328276 89.2112821 62.0918196 88.7907692 61.9198462 88.3706667 61.7482812 87.9347692 61.6622944 87.4822564 61.6622944 87.0084103 61.6622944 86.5667692 61.7482812 86.1575385 61.9198462 85.7481026 62.0918196 85.3872821 62.3328276 85.0752821 62.6438912 84.7626667 62.9543422 84.5206154 63.3140159 84.3483077 63.7214828 84.1755897 64.1295623 84.0898462 64.5578621 84.0898462 65.0082202L84.0898462 69.6408833 84.0898462 69.6408833ZM81.6342564 65.0082202C81.6342564 64.2153448 81.7846154 63.4637268 82.086359 62.7564297 82.3876923 62.0483156 82.8082051 61.4317029 83.3466667 60.906183 83.8849231 60.3812759 84.5042051 59.9680902 85.2047179 59.6676472 85.9044103 59.3676127 86.6633846 59.2172891 87.4822564 59.2172891 88.2791795 59.2172891 89.033641 59.3676127 89.744 59.6676472 90.4551795 59.9680902 91.0742564 60.3812759 91.6020513 60.906183 92.1292308 61.4317029 92.5497436 62.0483156 92.8619487 62.7564297 93.1739487 63.4637268 93.3306667 64.2153448 93.3306667 65.0082202L93.3306667 69.6408833C93.3306667 70.4343714 93.1796923 71.1851724 92.8781538 71.8930822 92.5762051 72.6003793 92.1565128 73.2171963 91.6178462 73.7425119 91.0793846 74.2682361 90.4551795 74.680809 89.744 74.9814562 89.033641 75.2818992 88.2791795 75.4316101 87.4822564 75.4316101 86.6851282 75.4316101 85.9316923 75.2818992 85.2209231 74.9814562 84.5099487 74.680809 83.8904615 74.2682361 83.3624615 73.7425119 82.8350769 73.2171963 82.4149744 72.6003793 82.1025641 71.8930822 81.7901538 71.1851724 81.6342564 70.4343714 81.6342564 69.6408833L81.6342564 65.0082202 81.6342564 65.0082202Z" fill="#666666"/><path d="M97.1109744 69.6408833C97.1109744 70.0908329 97.1963077 70.5209708 97.3688205 70.9282334 97.5409231 71.335496 97.7833846 71.695374 98.0957949 72.0056207 98.408 72.3168886 98.7688205 72.5581008 99.1782564 72.7296658 99.5874872 72.9012308 100.028923 72.9866048 100.502974 72.9866048 100.955487 72.9866048 101.391385 72.9012308 101.811897 72.7296658 102.231795 72.5581008 102.591795 72.3168886 102.894154 72.0056207 103.195487 71.695374 103.437538 71.335496 103.621128 70.9282334 103.803692 70.5209708 103.89559 70.0908329 103.89559 69.6408833L103.89559 65.0082202C103.89559 64.5578621 103.809436 64.1295623 103.637333 63.7214828 103.46441 63.3140159 103.222154 62.9543422 102.910359 62.6438912 102.597744 62.3328276 102.236513 62.0918196 101.828103 61.9198462 101.418667 61.7482812 100.976615 61.6622944 100.502974 61.6622944 100.050872 61.6622944 99.6145641 61.7482812 99.1944615 61.9198462 98.774359 62.0918196 98.4135385 62.3328276 98.112 62.6438912 97.8102564 62.9543422 97.5682051 63.3140159 97.3850256 63.7214828 97.2018462 64.1295623 97.1109744 64.5578621 97.1109744 65.0082202L97.1109744 69.6408833 97.1109744 69.6408833ZM103.89559 54.9061061C103.89559 54.5635889 104.013744 54.2743793 104.250872 54.038069 104.488 53.8023714 104.778462 53.6843183 105.123487 53.6843183 105.446564 53.6843183 105.731897 53.8023714 105.979897 54.038069 106.227077 54.2743793 106.351179 54.5635889 106.351179 54.9061061L106.351179 69.6408833C106.351179 70.4343714 106.194667 71.1851724 105.882462 71.8930822 105.570462 72.6003793 105.149949 73.2171963 104.622769 73.7425119 104.094769 74.2682361 103.475897 74.680809 102.764718 74.9814562 102.054154 75.2818992 101.299692 75.4316101 100.502974 75.4316101 99.6838974 75.4316101 98.9249231 75.2818992 98.2252308 74.9814562 97.5249231 74.680809 96.905641 74.2682361 96.3673846 73.7425119 95.8289231 73.2171963 95.4084103 72.6003793 95.1070769 71.8930822 94.8051282 71.1851724 94.6549744 70.4343714 94.6549744 69.6408833L94.6549744 65.0082202C94.6549744 64.2153448 94.8110769 63.4637268 95.1232821 62.7564297 95.4356923 62.0483156 95.8553846 61.4317029 96.3831795 60.906183 96.9111795 60.3812759 97.5304615 59.9680902 98.2414359 59.6676472 98.9522051 59.3676127 99.7058462 59.2172891 100.502974 59.2172891 101.12759 59.2172891 101.725128 59.3141008 102.29641 59.5069072 102.866667 59.6999178 103.4 59.9680902 103.89559 60.3114244L103.89559 54.9061061 103.89559 54.9061061Z" fill="#666666"/><path d="M108.548103 63.7214828C108.548103 63.0572812 108.687795 62.445366 108.968205 61.8875756 109.247795 61.3299894 109.630564 60.8532838 110.115077 60.4554164 110.6 60.0593873 111.181333 59.7538382 111.859897 59.5391777 112.538462 59.3253342 113.276308 59.2172891 114.073436 59.2172891 114.71959 59.2391432 115.343795 59.3353422 115.947282 59.5069072 116.464 59.6576393 116.99159 59.8986472 117.530462 60.2309523 118.068513 60.5636658 118.521026 61.0299549 118.887795 61.6306366 119.037949 61.9310796 119.113641 62.1884271 119.113641 62.402679 119.113641 62.7241592 119.00041 63.0029523 118.774564 63.2390584 118.548308 63.4749602 118.273436 63.5930133 117.950154 63.5930133 117.562667 63.5930133 117.228718 63.4214483 116.948718 63.0779098 116.539282 62.5848647 116.129846 62.2253952 115.721231 62.0001141 115.311795 61.7750371 114.762256 61.6622944 114.073436 61.6622944 113.146872 61.6622944 112.403692 61.8608196 111.844103 62.25787 111.283692 62.6547162 111.003692 63.1422467 111.003692 63.7214828 111.003692 64.493321 111.273231 65.02987 111.811282 65.3299045 112.349949 65.6301432 113.104205 65.7798541 114.073436 65.7798541 114.869949 65.7798541 115.624205 65.8827931 116.334769 66.0862202 117.045538 66.2900557 117.664615 66.5956048 118.192821 67.0028674 118.72041 67.4109469 119.140103 67.9152255 119.452923 68.5146817 119.764718 69.1155676 119.921436 69.8128568 119.921436 70.6059363 119.921436 71.4212785 119.764718 72.1293926 119.452923 72.7296658 119.140103 73.3301432 118.709744 73.833809 118.160821 74.2410716 117.611692 74.6491512 116.975385 74.9491857 116.254154 75.1424005 115.532513 75.3354111 114.772718 75.4316101 113.976 75.4316101 113.803487 75.4316101 113.486359 75.4048541 113.023179 75.3513422 112.55959 75.2982387 112.04841 75.1534297 111.48841 74.9169151 110.928205 74.680809 110.362667 74.321748 109.792205 73.8395279 109.221128 73.356695 108.741949 72.6869788 108.354256 71.8285411 108.289846 71.6782175 108.257436 71.5285066 108.257436 71.378183 108.257436 71.0558859 108.370462 70.773008 108.596923 70.5256684 108.822974 70.2791459 109.118974 70.1555782 109.485333 70.1555782 109.743795 70.1555782 109.969846 70.225634 110.163487 70.3649284 110.357538 70.5046313 110.508103 70.6919231 110.616 70.9282334 110.895795 71.5707851 111.369641 72.0750637 112.037744 72.4396393 112.705026 72.8046233 113.384 72.9866048 114.073436 72.9866048 114.525538 72.9866048 114.961846 72.9494324 115.381949 72.8744748 115.802051 72.7991088 116.162462 72.6706393 116.464 72.4878408 116.765538 72.3060637 117.007795 72.0595411 117.191179 71.7478647 117.373949 71.4372095 117.466051 71.0558859 117.466051 70.6059363 117.466051 69.6843873 117.137231 69.0573581 116.480205 68.7242361 115.823179 68.3915225 115.020718 68.2254721 114.073436 68.2254721 113.276308 68.2254721 112.538462 68.1505146 111.859897 68.000191 111.181333 67.8504801 110.6 67.597626 110.115077 67.2442838 109.630564 66.8903289 109.247795 66.4287374 108.968205 65.8607347 108.687795 65.2927321 108.548103 64.5799204 108.548103 63.7214828" fill="#666666"/></g></g></g></g></svg>
